<svg width="103" height="21" viewBox="0 0 103 21" fill="none" xmlns="http://www.w3.org/2000/svg">
<path d="M2.98606 8.72559H4.6687C5.5533 8.79398 6.42987 8.51883 7.10906 7.95958C7.38208 7.68918 7.59471 7.36615 7.73346 7.01099C7.87221 6.65583 7.93404 6.27629 7.91504 5.89648C7.93542 5.52449 7.87402 5.15256 7.73497 4.80582C7.59592 4.45907 7.38248 4.14561 7.10906 3.88662C6.44331 3.35573 5.59567 3.09387 4.73937 3.15455H2.98606V8.72559ZM0 0.76601H4.99965C6.57567 0.688553 8.12249 1.20293 9.32448 2.20419C9.8538 2.66578 10.2735 3.2353 10.5539 3.87274C10.8344 4.51017 10.9689 5.20003 10.948 5.89382C10.9796 6.6086 10.8457 7.32112 10.5563 7.97805C10.2669 8.63498 9.82952 9.2193 9.27691 9.68727C8.09868 10.6453 6.60145 11.145 5.071 11.0908H2.98606V16.405H0V0.76601ZM19.1933 11.3477H17.7241C17.1198 11.3085 16.5195 11.468 16.0183 11.8009C15.8329 11.932 15.6824 12.1047 15.5794 12.3046C15.4763 12.5045 15.4239 12.7257 15.4264 12.9496C15.4264 13.9395 16.0106 14.4344 17.179 14.4344C17.4512 14.4499 17.7237 14.4093 17.9788 14.3153C18.234 14.2213 18.4662 14.076 18.6605 13.8887C18.8411 13.697 18.9811 13.4723 19.0727 13.2274C19.1642 12.9825 19.2055 12.7223 19.194 12.4618L19.1933 11.3477ZM13.3646 7.82049V5.24494C14.5607 4.63628 15.9026 4.35552 17.2483 4.43234C20.5031 4.43234 22.13 5.91711 22.1291 8.88665V16.407H19.3115V14.9901C18.7588 15.9959 17.7168 16.4986 16.1855 16.4982C15.6895 16.5227 15.1935 16.4491 14.7272 16.2815C14.261 16.114 13.834 15.8561 13.4719 15.5232C13.1399 15.2028 12.8791 14.8187 12.7058 14.395C12.5325 13.9712 12.4504 13.517 12.4648 13.0608C12.4441 12.5547 12.5498 12.0514 12.7728 11.5944C12.9958 11.1374 13.3293 10.7407 13.7444 10.4386C14.8384 9.7369 16.1358 9.40285 17.4407 9.48695H19.1947V8.77085C19.2138 8.50173 19.1774 8.2316 19.0878 7.97652C18.9981 7.72144 18.857 7.48664 18.6727 7.28608C18.1711 6.89579 17.5338 6.71243 16.8963 6.77496C15.6381 6.76822 14.4069 7.13202 13.3625 7.81916M28.4111 16.1747L23.6717 4.64198H26.8222L28.2208 8.40082C28.6471 9.51445 28.9908 10.4506 29.2517 11.2093C29.5127 11.968 29.6744 12.4474 29.7369 12.6475L29.8049 12.9723C29.9635 12.431 30.4688 10.9072 31.321 8.40082L32.5776 4.64132H35.563L31.2266 16.0816C30.0264 19.2223 28.1943 20.7927 25.7302 20.7927C25.3321 20.7989 24.9346 20.76 24.5457 20.6769V18.3789C24.8093 18.4414 25.0797 18.4724 25.351 18.4714C26.7889 18.4714 27.8083 17.7056 28.409 16.1741M43.1477 14.1775C43.5479 14.1869 43.9448 14.1047 44.3068 13.9376C44.6689 13.7704 44.9861 13.5228 45.2333 13.2145C45.8153 12.4326 46.1003 11.4762 46.0393 10.5105C46.1006 9.54485 45.8152 8.58859 45.2327 7.80718C44.9928 7.50236 44.6836 7.25657 44.3297 7.08939C43.9757 6.9222 43.5868 6.83824 43.1939 6.84418C42.7938 6.8418 42.3975 6.92105 42.0304 7.07688C41.6632 7.23271 41.3332 7.4617 41.0614 7.74928C40.4098 8.49628 40.087 9.46571 40.1637 10.4453C40.0985 11.4401 40.4105 12.4235 41.0397 13.2072C41.2951 13.5125 41.6166 13.7583 41.9809 13.9269C42.3453 14.0956 42.7434 14.1827 43.1464 14.1822M40.1637 4.64065V6.45219C40.5379 5.83081 41.0763 5.31968 41.722 4.97256C42.3678 4.62543 43.0972 4.45514 43.8334 4.47959C44.5432 4.45235 45.2498 4.58703 45.8974 4.873C46.545 5.15896 47.1159 5.5884 47.565 6.12741C48.5367 7.36735 49.0277 8.90471 48.9506 10.4659C49.0137 12.0364 48.5246 13.5806 47.565 14.8404C47.1256 15.4015 46.5553 15.8513 45.902 16.1524C45.2486 16.4534 44.5312 16.5969 43.8096 16.5707C43.0804 16.6033 42.3558 16.4413 41.7132 16.1021C41.0706 15.7629 40.5341 15.2592 40.161 14.6447V20.8407H37.3203V4.64065H40.1637ZM51.5126 0H54.3553V16.4063H51.5126V0ZM64.7814 9.56082V9.21209C64.7847 8.55352 64.5635 7.91272 64.1528 7.39123C63.9428 7.15778 63.681 6.97463 63.3874 6.8559C63.0938 6.73718 62.7762 6.68603 62.4593 6.70641C62.1293 6.70349 61.8022 6.76696 61.4982 6.89288C61.1943 7.01881 60.92 7.20451 60.6924 7.43848C60.1469 8.02643 59.8103 8.77141 59.7328 9.56215L64.7814 9.56082ZM66.725 13.343V15.7561C65.6105 16.3308 64.3567 16.5957 63.0994 16.5221C62.2681 16.5652 61.4367 16.4389 60.6577 16.1514C59.8787 15.8639 59.169 15.4213 58.5734 14.8517C58.0167 14.2771 57.5831 13.5991 57.2982 12.8577C57.0133 12.1164 56.8829 11.3266 56.9146 10.5351C56.82 8.9209 57.382 7.33566 58.4776 6.12608C58.9774 5.60391 59.5843 5.19109 60.2584 4.91468C60.9325 4.63827 61.6587 4.50451 62.3893 4.52219C63.0746 4.48929 63.7593 4.59657 64.3999 4.8372C65.0405 5.07783 65.6229 5.44652 66.11 5.91977C67.026 6.84795 67.4841 8.20117 67.4841 9.97943C67.4721 10.5396 67.4167 11.098 67.3182 11.6499H59.7831C59.9459 12.4363 60.4074 13.133 61.0743 13.5992C61.8006 14.0675 62.6579 14.3025 63.5269 14.2713C64.6675 14.3084 65.789 13.9823 66.725 13.343Z" fill="#8362E3"/>
<path d="M75.3794 10.883V14.4676C75.3794 14.764 75.4582 14.9909 75.6156 15.1484C75.7731 15.2966 75.9908 15.3707 76.2686 15.3707C76.6206 15.3707 76.9448 15.2734 77.2412 15.0789V16.51C76.917 16.6674 76.5002 16.7462 75.9908 16.7462C74.4717 16.7462 73.7122 15.9774 73.7122 14.4398V10.883H72.6562V9.63254H73.7122V7.9375H75.3794V9.63254H77.13V10.883H75.3794Z" fill="#444444"/>
<path d="M82.853 12.578V12.3696C82.8345 11.9158 82.7094 11.5545 82.4778 11.2859C82.2555 11.008 81.9267 10.8691 81.4914 10.8691C81.0931 10.8691 80.7458 11.0173 80.4494 11.3137C80.1622 11.6008 79.977 12.0223 79.8936 12.578H82.853ZM83.9923 14.8427V16.2877C83.5014 16.5933 82.7928 16.7462 81.8665 16.7462C80.7458 16.7462 79.8612 16.4127 79.2128 15.7458C78.5644 15.0789 78.2402 14.2175 78.2402 13.1616C78.2402 12.0408 78.5459 11.1609 79.1572 10.5217C79.7686 9.88263 80.5327 9.56307 81.4497 9.56307C82.3667 9.56307 83.0938 9.84095 83.631 10.3967C84.1683 10.9524 84.4369 11.7629 84.4369 12.8281C84.4369 13.0875 84.4045 13.4209 84.3396 13.8285H79.9214C80.0418 14.3379 80.2919 14.7269 80.6717 14.9955C81.0607 15.2642 81.5423 15.3985 82.1166 15.3985C82.8576 15.3985 83.4828 15.2132 83.9923 14.8427Z" fill="#444444"/>
<path d="M89.5678 13.6478H88.7064C88.271 13.6478 87.9376 13.7405 87.706 13.9257C87.4745 14.1017 87.3587 14.3286 87.3587 14.6065C87.3587 15.1993 87.7014 15.4957 88.3868 15.4957C88.7573 15.4957 89.0445 15.3892 89.2482 15.1762C89.4613 14.9539 89.5678 14.6667 89.5678 14.3147V13.6478ZM86.1499 11.536V9.99378C86.6779 9.66959 87.4374 9.5075 88.4285 9.5075C90.3366 9.5075 91.2906 10.3967 91.2906 12.1751V16.6767H89.6373V15.8292C89.3131 16.4312 88.7018 16.7323 87.8033 16.7323C87.1364 16.7323 86.6038 16.5377 86.2055 16.1487C85.8165 15.7597 85.622 15.2688 85.622 14.676C85.622 14.0091 85.8721 13.4857 86.3722 13.106C86.8724 12.7262 87.5949 12.5363 88.5397 12.5363H89.5678V12.1056C89.5678 11.7166 89.4659 11.4202 89.2621 11.2164C89.0584 11.0127 88.711 10.9108 88.2201 10.9108C87.4698 10.9108 86.7798 11.1192 86.1499 11.536Z" fill="#444444"/>
<path d="M94.6784 9.63254V10.744C95.0767 9.94747 95.739 9.54918 96.6652 9.54918C97.6934 9.54918 98.3603 9.99378 98.6659 10.883C98.8512 10.4569 99.1291 10.1281 99.4996 9.89652C99.8701 9.66496 100.292 9.54918 100.764 9.54918C101.477 9.54918 102.028 9.76685 102.417 10.2022C102.806 10.6283 103.001 11.2396 103.001 12.0362V16.6767H101.32V12.3557C101.32 11.4109 100.958 10.9386 100.236 10.9386C99.8747 10.9386 99.5505 11.096 99.2634 11.4109C98.9855 11.7259 98.8466 12.2214 98.8466 12.8976V16.6767H97.1654V12.3557C97.1654 11.4109 96.8042 10.9386 96.0817 10.9386C95.7205 10.9386 95.3963 11.096 95.1091 11.4109C94.822 11.7259 94.6784 12.2214 94.6784 12.8976V16.6767H93.0112V9.63254H94.6784Z" fill="#444444"/>
</svg>
