<svg width="20" height="100" viewBox="0 0 20 100" fill="none" xmlns="http://www.w3.org/2000/svg">
<path d="M16 0H4C1.79086 0 0 1.79086 0 4V16C0 18.2091 1.79086 20 4 20H16C18.2091 20 20 18.2091 20 16V4C20 1.79086 18.2091 0 16 0Z" fill="white"/>
<path d="M16 0.5H4C2.067 0.5 0.5 2.067 0.5 4V16C0.5 17.933 2.067 19.5 4 19.5H16C17.933 19.5 19.5 17.933 19.5 16V4C19.5 2.067 17.933 0.5 16 0.5Z" stroke="#CCCCCC"/>
<path d="M16 20H4C1.79086 20 0 21.7909 0 24V36C0 38.2091 1.79086 40 4 40H16C18.2091 40 20 38.2091 20 36V24C20 21.7909 18.2091 20 16 20Z" fill="#7852E8"/>
<path d="M8.47346 34.0003C8.29164 33.9972 8.11687 33.9295 7.98046 33.8093L5.22546 31.1333C5.15533 31.0649 5.09961 30.9831 5.06156 30.8929C5.02351 30.8026 5.00391 30.7057 5.00391 30.6078C5.00391 30.5098 5.02351 30.4129 5.06156 30.3226C5.09961 30.2324 5.15533 30.1506 5.22546 30.0823C5.38541 29.9591 5.58604 29.9009 5.78709 29.9194C5.98813 29.938 6.17473 30.0319 6.30946 30.1823L8.47646 32.2823L13.6955 27.2153C13.8421 27.077 14.0359 27 14.2375 27C14.439 27 14.6329 27.077 14.7795 27.2153C14.8496 27.2836 14.9053 27.3654 14.9434 27.4556C14.9814 27.5459 15.001 27.6428 15.001 27.7408C15.001 27.8387 14.9814 27.9356 14.9434 28.0259C14.9053 28.1161 14.8496 28.1979 14.7795 28.2663L8.96646 33.8093C8.83004 33.9295 8.65527 33.9972 8.47346 34.0003Z" fill="white"/>
<path d="M16 80H4C1.79086 80 0 81.7909 0 84V96C0 98.2091 1.79086 100 4 100H16C18.2091 100 20 98.2091 20 96V84C20 81.7909 18.2091 80 16 80Z" fill="#B79EFF"/>
<path d="M8.47346 94.0003C8.29164 93.9972 8.11687 93.9295 7.98046 93.8093L5.22546 91.1333C5.15533 91.0649 5.09961 90.9831 5.06156 90.8929C5.02351 90.8026 5.00391 90.7057 5.00391 90.6078C5.00391 90.5098 5.02351 90.4129 5.06156 90.3226C5.09961 90.2324 5.15533 90.1506 5.22546 90.0823C5.38541 89.9591 5.58604 89.9009 5.78709 89.9194C5.98813 89.938 6.17473 90.0319 6.30946 90.1823L8.47646 92.2823L13.6955 87.2153C13.8421 87.077 14.0359 87 14.2375 87C14.439 87 14.6329 87.077 14.7795 87.2153C14.8496 87.2836 14.9053 87.3654 14.9434 87.4556C14.9814 87.5459 15.001 87.6428 15.001 87.7408C15.001 87.8387 14.9814 87.9356 14.9434 88.0259C14.9053 88.1161 14.8496 88.1979 14.7795 88.2663L8.96646 93.8093C8.83004 93.9295 8.65527 93.9972 8.47346 94.0003Z" fill="white"/>
<path d="M16 40H4C1.79086 40 0 41.7909 0 44V56C0 58.2091 1.79086 60 4 60H16C18.2091 60 20 58.2091 20 56V44C20 41.7909 18.2091 40 16 40Z" fill="#EEEEEE"/>
<path d="M16 40.5H4C2.067 40.5 0.5 42.067 0.5 44V56C0.5 57.933 2.067 59.5 4 59.5H16C17.933 59.5 19.5 57.933 19.5 56V44C19.5 42.067 17.933 40.5 16 40.5Z" stroke="#CCCCCC"/>
<path d="M8.47346 54.0003C8.29164 53.9972 8.11687 53.9295 7.98046 53.8093L5.22546 51.1333C5.15533 51.0649 5.09961 50.9831 5.06156 50.8929C5.02351 50.8026 5.00391 50.7057 5.00391 50.6078C5.00391 50.5098 5.02351 50.4129 5.06156 50.3226C5.09961 50.2324 5.15533 50.1506 5.22546 50.0823C5.38541 49.9591 5.58604 49.9009 5.78709 49.9194C5.98813 49.938 6.17473 50.0319 6.30946 50.1823L8.47646 52.2823L13.6955 47.2153C13.8421 47.077 14.0359 47 14.2375 47C14.439 47 14.6329 47.077 14.7795 47.2153C14.8496 47.2836 14.9053 47.3654 14.9434 47.4556C14.9814 47.5459 15.001 47.6428 15.001 47.7408C15.001 47.8387 14.9814 47.9356 14.9434 48.0259C14.9053 48.1161 14.8496 48.1979 14.7795 48.2663L8.96646 53.8093C8.83004 53.9295 8.65527 53.9972 8.47346 54.0003Z" fill="#CCCCCC"/>
<path d="M16 60H4C1.79086 60 0 61.7909 0 64V76C0 78.2091 1.79086 80 4 80H16C18.2091 80 20 78.2091 20 76V64C20 61.7909 18.2091 60 16 60Z" fill="white"/>
<path d="M16 60.5H4C2.067 60.5 0.5 62.067 0.5 64V76C0.5 77.933 2.067 79.5 4 79.5H16C17.933 79.5 19.5 77.933 19.5 76V64C19.5 62.067 17.933 60.5 16 60.5Z" stroke="#FF436E"/>
</svg>
