<svg xmlns="http://www.w3.org/2000/svg" width="20" height="80" viewBox="0 0 20 80"><defs><style>.a,.c,.f{fill:#fff;}.a,.d{stroke:#ccc;}.b{fill:#7852e8;}.d{fill:#eee;}.e{fill:#ccc;}.f{stroke:#ff436e;}.g{stroke:none;}.h{fill:none;}</style></defs><g transform="translate(-1038 -251)"><g transform="translate(1038 456)"><g class="a" transform="translate(0 -205)"><rect class="g" width="20" height="20" rx="4"/><rect class="h" x="0.5" y="0.5" width="19" height="19" rx="3.5"/></g></g><g transform="translate(671 -819)"><rect class="b" width="20" height="20" rx="4" transform="translate(367 1090)"/><path class="c" d="M3.448,6.975h0a.765.765,0,0,1-.493-.191L.2,4.108a.734.734,0,0,1,0-1.051.8.8,0,0,1,1.084.1l2.167,2.1L8.67.19a.79.79,0,0,1,1.084,0,.734.734,0,0,1,0,1.051L3.941,6.784a.765.765,0,0,1-.493.191Z" transform="translate(372.025 1097.025)"/></g><g transform="translate(1008 496)"><g class="d" transform="translate(30 -205)"><rect class="g" width="20" height="20" rx="4"/><rect class="h" x="0.5" y="0.5" width="19" height="19" rx="3.5"/></g><path class="e" d="M3.448,6.975h0a.765.765,0,0,1-.493-.191L.2,4.108a.734.734,0,0,1,0-1.051.8.8,0,0,1,1.084.1l2.167,2.1L8.67.19a.79.79,0,0,1,1.084,0,.734.734,0,0,1,0,1.051L3.941,6.784a.765.765,0,0,1-.493.191Z" transform="translate(35.025 -197.975)"/></g><g transform="translate(1038 516)"><g class="f" transform="translate(0 -205)"><rect class="g" width="20" height="20" rx="4"/><rect class="h" x="0.5" y="0.5" width="19" height="19" rx="3.5"/></g></g></g></svg>